<svg width="20" height="20" viewBox="0 0 20 20" fill="none" xmlns="http://www.w3.org/2000/svg">
<path d="M2 10C2 7.87827 2.84285 5.84344 4.34315 4.34315C5.84344 2.84285 7.87827 2 10 2V10H18C18 12.1217 17.1571 14.1566 15.6569 15.6569C14.1566 17.1571 12.1217 18 10 18C7.87827 18 5.84344 17.1571 4.34315 15.6569C2.84285 14.1566 2 12.1217 2 10V10Z" fill="url(#paint0_linear_126_114)"/>
<path d="M12 2.25195C13.3836 2.61042 14.6462 3.3324 15.6569 4.34307C16.6676 5.35375 17.3895 6.61633 17.748 7.99995H12V2.25195Z" fill="url(#paint1_linear_126_114)"/>
<defs>
<linearGradient id="paint0_linear_126_114" x1="2" y1="10.0516" x2="18" y2="10.0516" gradientUnits="userSpaceOnUse">
<stop stop-color="#59B77F"/>
<stop offset="1" stop-color="#38EF7D"/>
</linearGradient>
<linearGradient id="paint1_linear_126_114" x1="12" y1="5.1445" x2="17.748" y2="5.1445" gradientUnits="userSpaceOnUse">
<stop stop-color="#59B77F"/>
<stop offset="1" stop-color="#38EF7D"/>
</linearGradient>
</defs>
</svg>
