<svg width="24" height="24" viewBox="0 0 24 24" fill="none" xmlns="http://www.w3.org/2000/svg">
<path d="M5.9998 4.80001C5.9998 4.48175 5.87337 4.17652 5.64832 3.95148C5.42328 3.72643 5.11806 3.60001 4.7998 3.60001C4.48154 3.60001 4.17631 3.72643 3.95127 3.95148C3.72622 4.17652 3.5998 4.48175 3.5998 4.80001V13.5216C3.23498 13.7323 2.93204 14.0352 2.72141 14.4001C2.51079 14.7649 2.3999 15.1787 2.3999 15.6C2.3999 16.0213 2.51079 16.4351 2.72141 16.8C2.93204 17.1648 3.23498 17.4678 3.5998 17.6784V19.2C3.5998 19.5183 3.72622 19.8235 3.95127 20.0485C4.17631 20.2736 4.48154 20.4 4.7998 20.4C5.11806 20.4 5.42328 20.2736 5.64832 20.0485C5.87337 19.8235 5.9998 19.5183 5.9998 19.2V17.6784C6.36461 17.4678 6.66756 17.1648 6.87818 16.8C7.08881 16.4351 7.19969 16.0213 7.19969 15.6C7.19969 15.1787 7.08881 14.7649 6.87818 14.4001C6.66756 14.0352 6.36461 13.7323 5.9998 13.5216V4.80001ZM13.1998 4.80001C13.1998 4.48175 13.0734 4.17652 12.8483 3.95148C12.6233 3.72643 12.3181 3.60001 11.9998 3.60001C11.6815 3.60001 11.3763 3.72643 11.1513 3.95148C10.9262 4.17652 10.7998 4.48175 10.7998 4.80001V6.32161C10.435 6.53226 10.132 6.83523 9.92141 7.20006C9.71079 7.56489 9.5999 7.97874 9.5999 8.40001C9.5999 8.82127 9.71079 9.23512 9.92141 9.59995C10.132 9.96479 10.435 10.2678 10.7998 10.4784V19.2C10.7998 19.5183 10.9262 19.8235 11.1513 20.0485C11.3763 20.2736 11.6815 20.4 11.9998 20.4C12.3181 20.4 12.6233 20.2736 12.8483 20.0485C13.0734 19.8235 13.1998 19.5183 13.1998 19.2V10.4784C13.5646 10.2678 13.8676 9.96479 14.0782 9.59995C14.2888 9.23512 14.3997 8.82127 14.3997 8.40001C14.3997 7.97874 14.2888 7.56489 14.0782 7.20006C13.8676 6.83523 13.5646 6.53226 13.1998 6.32161V4.80001ZM19.1998 3.60001C19.5181 3.60001 19.8233 3.72643 20.0483 3.95148C20.2734 4.17652 20.3998 4.48175 20.3998 4.80001V13.5216C20.7646 13.7323 21.0676 14.0352 21.2782 14.4001C21.4888 14.7649 21.5997 15.1787 21.5997 15.6C21.5997 16.0213 21.4888 16.4351 21.2782 16.8C21.0676 17.1648 20.7646 17.4678 20.3998 17.6784V19.2C20.3998 19.5183 20.2734 19.8235 20.0483 20.0485C19.8233 20.2736 19.5181 20.4 19.1998 20.4C18.8815 20.4 18.5763 20.2736 18.3513 20.0485C18.1262 19.8235 17.9998 19.5183 17.9998 19.2V17.6784C17.635 17.4678 17.332 17.1648 17.1214 16.8C16.9108 16.4351 16.7999 16.0213 16.7999 15.6C16.7999 15.1787 16.9108 14.7649 17.1214 14.4001C17.332 14.0352 17.635 13.7323 17.9998 13.5216V4.80001C17.9998 4.48175 18.1262 4.17652 18.3513 3.95148C18.5763 3.72643 18.8815 3.60001 19.1998 3.60001Z" fill="#EAF9E7"/>
</svg>
